<?xml version="1.0" encoding="utf-8"?>
<!-- Generator: Adobe Illustrator 28.0.0, SVG Export Plug-In . SVG Version: 6.00 Build 0)  -->
<svg version="1.1" id="Layer_1" xmlns="http://www.w3.org/2000/svg" xmlns:xlink="http://www.w3.org/1999/xlink" x="0px" y="0px"
	 viewBox="0 0 2019.65 506.14" style="enable-background:new 0 0 2019.65 506.14;" xml:space="preserve">
<style type="text/css">
	.st0{fill:#78FF78;}
	
		.st1{clip-path:url(#SVGID_00000041275106450185830040000001531652687357011080_);fill:#FF92F7;stroke:#FFFFFF;stroke-width:8;stroke-miterlimit:10;}
	
		.st2{clip-path:url(#SVGID_00000078743388210461909540000008515237735077681796_);fill:#FF92F7;stroke:#FFFFFF;stroke-width:8;stroke-miterlimit:10;}
	
		.st3{clip-path:url(#SVGID_00000036251810468320471490000012830247019098039952_);fill:#FF92F7;stroke:#FFFFFF;stroke-width:8;stroke-miterlimit:10;}
	.st4{fill:none;stroke:#FFFFFF;stroke-width:8;stroke-miterlimit:10;}
</style>
<g>
	<path d="M596.26,191.88l-17.62,14.12c-4.66-4.83-8.88-8.44-12.66-10.81s-9.25-3.56-16.4-3.56c-7.82,0-14.16,1.77-19.02,5.3
		s-7.29,8.08-7.29,13.65c0,4.82,2.12,9.08,6.37,12.77c4.25,3.7,11.49,7.74,21.72,12.14s18.2,8.49,23.89,12.28
		c5.7,3.79,10.38,7.97,14.04,12.55c3.66,4.58,6.38,9.41,8.17,14.49c1.79,5.08,2.68,10.45,2.68,16.11c0,13.24-4.81,24.52-14.44,33.85
		c-9.62,9.32-21.27,13.99-34.94,13.99c-13.33,0-25.11-3.65-35.31-10.94c-10.21-7.29-18.06-18.23-23.56-32.81l21.75-6.12
		c7.92,17.92,20.04,26.88,36.38,26.88c7.92,0,14.5-2.37,19.75-7.1c5.25-4.73,7.88-10.72,7.88-17.95c0-4.32-1.38-8.66-4.13-13.02
		c-2.75-4.36-6.17-7.96-10.26-10.78c-4.09-2.82-10.59-6.07-19.51-9.72c-8.92-3.66-15.78-7.01-20.59-10.04s-8.97-6.66-12.48-10.87
		s-6.08-8.39-7.71-12.55c-1.63-4.16-2.45-8.62-2.45-13.36c0-11.41,4.58-21.13,13.75-29.17c9.17-8.04,20.29-12.05,33.38-12.05
		c8.67,0,17.46,1.88,26.38,5.62C582.92,178.51,590.34,184.22,596.26,191.88z"/>
	<path d="M622.88,333.38V230.26h21.5v15.88c5.08-6.5,9.94-11.25,14.56-14.25s9.94-4.5,15.94-4.5c7.83,0,13.98,1.71,18.44,5.12
		c4.46,3.42,8.23,8.88,11.31,16.38c5.44-7.5,10.69-12.96,15.75-16.38c5.06-3.42,10.94-5.12,17.63-5.12c8.2,0,15.27,3.06,21.21,9.19
		c5.94,6.12,8.91,13.4,8.91,21.81v75h-21.75v-69.38c0-11.42-5.64-17.12-16.93-17.12c-6.44,0-11.89,2.92-16.37,8.75
		c-4.47,5.83-6.71,13.04-6.71,21.62v56.12h-21.75v-66.5c0-13.5-5.54-20.25-16.62-20.25c-6.58,0-12.17,2.75-16.75,8.25
		c-4.58,5.5-6.88,12.29-6.88,20.37v58.12H622.88z"/>
	<path d="M882.51,230.26h21.75v103.12h-21.75v-20.5c-10.58,15.58-23.71,23.38-39.38,23.38c-13.58,0-25.19-5.33-34.81-16
		c-9.62-10.67-14.44-23.62-14.44-38.88c0-14.42,4.85-27.02,14.56-37.81c9.71-10.79,21.1-16.19,34.19-16.19
		c8.08,0,15.75,2.21,23,6.62c7.25,4.42,12.88,10.17,16.88,17.25V230.26z M885.51,282.13c0-9.42-3.38-17.48-10.14-24.19
		c-6.76-6.71-14.86-10.06-24.29-10.06c-9.18,0-17.2,3.33-24.04,10c-6.85,6.67-10.27,14.5-10.27,23.5c0,9.75,3.34,18.04,10.02,24.88
		c6.68,6.83,14.78,10.25,24.29,10.25c9.43,0,17.53-3.39,24.29-10.19C882.13,299.53,885.51,291.47,885.51,282.13z"/>
	<path d="M939.88,171.13h21.75v162.25h-21.75V171.13z"/>
	<path d="M996.01,171.13h21.75v162.25h-21.75V171.13z"/>
	<path d="M1180.01,179.63v24.62c-17.17-8.42-32.96-12.62-47.38-12.62c-18.5,0-34.08,5.97-46.75,17.92
		c-12.67,11.95-19,26.62-19,44.02c0,17.73,6.48,32.53,19.44,44.39c12.96,11.86,29.19,17.79,48.69,17.79c14.17,0,29.17-4.46,45-13.38
		v24.88c-14.42,7.67-30.04,11.5-46.88,11.5c-24.67,0-45.75-8.35-63.25-25.04s-26.25-36.83-26.25-60.39
		c0-23.15,8.6-42.97,25.81-59.45c17.21-16.49,37.94-24.73,62.19-24.73C1147.22,169.13,1163.34,172.63,1180.01,179.63z"/>
	<path d="M1198.01,281.38c0-14.08,5.56-26.6,16.69-37.56c11.12-10.96,23.89-16.44,38.31-16.44c14.83,0,27.79,5.4,38.88,16.19
		c11.08,10.79,16.62,23.4,16.62,37.81c0,14.5-5.44,27.27-16.31,38.31c-10.88,11.04-23.44,16.56-37.69,16.56
		c-15.25,0-28.48-5.46-39.69-16.38C1203.61,308.97,1198.01,296.13,1198.01,281.38z M1287.51,281.44c0-8.77-3.33-16.38-10-22.86
		c-6.67-6.47-14.58-9.71-23.75-9.71c-9.42,0-17.52,3.28-24.31,9.83c-6.79,6.55-10.19,14.38-10.19,23.48
		c0,8.68,3.44,16.28,10.31,22.79s14.94,9.77,24.19,9.77c9,0,16.88-3.34,23.62-10.02S1287.51,290.3,1287.51,281.44z"/>
	<path d="M1327.76,333.38V230.26h21.25v17.12c6.25-6.92,11.92-11.98,17-15.19c5.08-3.21,10.75-4.81,17-4.81
		c9.33,0,17.31,3.08,23.94,9.25c6.62,6.17,9.94,13.58,9.94,22.25v74.5h-21.75v-68.12c0-5.58-1.81-10.21-5.44-13.87
		c-3.62-3.67-8.23-5.5-13.81-5.5c-7.25,0-13.5,3.06-18.75,9.19c-5.25,6.12-7.88,13.52-7.88,22.19v56.12H1327.76z"/>
	<path d="M1506.13,172.76v22c-6.33-4.25-11.79-6.38-16.38-6.38c-3.83,0-6.83,1.41-9,4.24c-2.17,2.82-3.25,6.77-3.25,11.84v25.8
		h28.62v19.88h-28.62v83.25h-21.75v-83.25h-19v-19.88h19v-24.33c0-11.73,3.02-21.08,9.06-28.07c6.04-6.99,14.1-10.48,24.19-10.48
		C1494.01,167.38,1499.72,169.17,1506.13,172.76z"/>
	<path d="M1525.38,230.26h21.75v58.12c0,17.92,7.88,26.88,23.62,26.88c7,0,12.54-2.39,16.62-7.19c4.08-4.79,6.12-11.35,6.12-19.69
		v-58.12h21.5v61.62c0,12.92-4.21,23.54-12.62,31.88c-8.42,8.33-19.17,12.5-32.25,12.5c-13.33,0-24.12-4.17-32.38-12.5
		c-8.25-8.33-12.38-19.21-12.38-32.62V230.26z"/>
	<path d="M1703.51,242.51l-14.5,12.75c-3.75-2.67-7-4.69-9.75-6.06s-6-2.06-9.75-2.06c-8.83,0-13.25,3.25-13.25,9.75
		c0,4.67,5.6,9.2,16.81,13.59c11.21,4.4,19.27,9.22,24.19,14.46c4.92,5.24,7.38,11.57,7.38,18.98c0,8.66-3.54,16.21-10.62,22.66
		c-7.08,6.45-15.42,9.68-25,9.68c-14.58,0-26.54-6.75-35.88-20.25l17.12-8.25c6,5.83,12.25,8.75,18.75,8.75
		c4.5,0,8.44-1.23,11.81-3.69c3.38-2.46,5.06-5.31,5.06-8.56c0-5.75-5.92-10.92-17.75-15.52c-11.83-4.59-20.02-9.24-24.56-13.95
		c-4.54-4.71-6.81-10.51-6.81-17.43c0-8.58,3.23-15.72,9.69-21.42c6.46-5.71,14.56-8.56,24.31-8.56S1691.42,232.42,1703.51,242.51z"
		/>
	<path d="M1722.51,196.38c0-4.5,1.67-8.39,5-11.69c3.33-3.29,7.29-4.94,11.88-4.94c4.5,0,8.39,1.65,11.69,4.94
		c3.29,3.29,4.94,7.19,4.94,11.69c0,4.58-1.65,8.5-4.94,11.75c-3.29,3.25-7.19,4.88-11.69,4.88c-4.58,0-8.54-1.62-11.88-4.88
		C1724.17,204.88,1722.51,200.97,1722.51,196.38z M1728.63,230.26h21.5v103.12h-21.5V230.26z"/>
	<path d="M1776.88,281.38c0-14.08,5.56-26.6,16.69-37.56c11.12-10.96,23.89-16.44,38.31-16.44c14.83,0,27.79,5.4,38.88,16.19
		c11.08,10.79,16.62,23.4,16.62,37.81c0,14.5-5.44,27.27-16.31,38.31c-10.88,11.04-23.44,16.56-37.69,16.56
		c-15.25,0-28.48-5.46-39.69-16.38C1782.49,308.97,1776.88,296.13,1776.88,281.38z M1866.38,281.44c0-8.77-3.33-16.38-10-22.86
		c-6.67-6.47-14.58-9.71-23.75-9.71c-9.42,0-17.52,3.28-24.31,9.83c-6.79,6.55-10.19,14.38-10.19,23.48
		c0,8.68,3.44,16.28,10.31,22.79s14.94,9.77,24.19,9.77c9,0,16.88-3.34,23.62-10.02S1866.38,290.3,1866.38,281.44z"/>
	<path d="M1906.63,333.38V230.26h21.25v17.12c6.25-6.92,11.92-11.98,17-15.19c5.08-3.21,10.75-4.81,17-4.81
		c9.33,0,17.31,3.08,23.94,9.25c6.62,6.17,9.94,13.58,9.94,22.25v74.5h-21.75v-68.12c0-5.58-1.81-10.21-5.44-13.87
		c-3.62-3.67-8.23-5.5-13.81-5.5c-7.25,0-13.5,3.06-18.75,9.19c-5.25,6.12-7.88,13.52-7.88,22.19v56.12H1906.63z"/>
</g>
<g>
	<circle class="st0" cx="246.97" cy="253.07" r="206.52"/>
	<g>
		<g>
			<defs>
				<circle id="SVGID_00000116929328645697148900000009885230238022045839_" cx="246.97" cy="253.07" r="206.52"/>
			</defs>
			<clipPath id="SVGID_00000180325316938692285550000005798749861786019255_">
				<use xlink:href="#SVGID_00000116929328645697148900000009885230238022045839_"  style="overflow:visible;"/>
			</clipPath>
			
				<path style="clip-path:url(#SVGID_00000180325316938692285550000005798749861786019255_);fill:#FF92F7;stroke:#FFFFFF;stroke-width:8;stroke-miterlimit:10;" d="
				M498.83,516.1L498.83,516.1c-12.05,6.96-27.46,2.83-34.42-9.22L185.88,24.45c-6.96-12.05-2.83-27.46,9.22-34.42l0,0
				c12.05-6.96,27.46-2.83,34.42,9.22l278.53,482.43C515.01,493.73,510.88,509.14,498.83,516.1z"/>
		</g>
		<g>
			<defs>
				<circle id="SVGID_00000136382936010518576120000017831887783452125845_" cx="246.97" cy="253.07" r="206.52"/>
			</defs>
			<clipPath id="SVGID_00000100383580883550398950000003459567433229720759_">
				<use xlink:href="#SVGID_00000136382936010518576120000017831887783452125845_"  style="overflow:visible;"/>
			</clipPath>
			
				<path style="clip-path:url(#SVGID_00000100383580883550398950000003459567433229720759_);fill:#FF92F7;stroke:#FFFFFF;stroke-width:8;stroke-miterlimit:10;" d="
				M298.83,516.1L298.83,516.1c-12.05,6.96-27.46,2.83-34.42-9.22L-14.12,24.45C-21.08,12.4-16.95-3.01-4.9-9.97l0,0
				c12.05-6.96,27.46-2.83,34.42,9.22l278.53,482.43C315.01,493.73,310.88,509.14,298.83,516.1z"/>
		</g>
		<g>
			<defs>
				<circle id="SVGID_00000127035331406883638100000008146228941241676438_" cx="246.97" cy="253.07" r="206.52"/>
			</defs>
			<clipPath id="SVGID_00000128454561186980288950000012977741147359630769_">
				<use xlink:href="#SVGID_00000127035331406883638100000008146228941241676438_"  style="overflow:visible;"/>
			</clipPath>
			
				<path style="clip-path:url(#SVGID_00000128454561186980288950000012977741147359630769_);fill:#FF92F7;stroke:#FFFFFF;stroke-width:8;stroke-miterlimit:10;" d="
				M398.83,516.1L398.83,516.1c-12.05,6.96-27.46,2.83-34.42-9.22L85.88,24.45C78.92,12.4,83.05-3.01,95.1-9.97l0,0
				c12.05-6.96,27.46-2.83,34.42,9.22l278.53,482.43C415.01,493.73,410.88,509.14,398.83,516.1z"/>
		</g>
		<g>
			<circle id="SVGID_1_" class="st4" cx="246.97" cy="253.07" r="206.52"/>
		</g>
	</g>
</g>
</svg>
