<?xml version="1.0" encoding="UTF-8"?><svg id="a" xmlns="http://www.w3.org/2000/svg" width="2339.61" height="506.14" xmlns:xlink="http://www.w3.org/1999/xlink" viewBox="0 0 2339.61 506.14"><defs><clipPath id="b"><circle cx="344.68" cy="253.07" r="206.52" style="fill:none; stroke-width:0px;"/></clipPath><clipPath id="c"><circle cx="344.68" cy="253.07" r="206.52" style="fill:none; stroke-width:0px;"/></clipPath><clipPath id="d"><circle cx="344.68" cy="253.07" r="206.52" style="fill:none; stroke-width:0px;"/></clipPath></defs><circle cx="344.68" cy="253.07" r="206.52" style="fill:#78ff78; stroke-width:0px;"/><g style="clip-path:url(#b);"><path d="m596.54,516.1h0c-12.05,6.96-27.46,2.83-34.42-9.22L283.59,24.45c-6.96-12.05-2.83-27.46,9.22-34.42h0c12.05-6.96,27.46-2.83,34.42,9.22l278.53,482.43c6.96,12.05,2.83,27.46-9.22,34.42Z" style="fill:#ff92f7; stroke:#fff; stroke-miterlimit:10; stroke-width:8px;"/></g><g style="clip-path:url(#c);"><path d="m396.54,516.1h0c-12.05,6.96-27.46,2.83-34.42-9.22L83.59,24.45c-6.96-12.05-2.83-27.46,9.22-34.42h0c12.05-6.96,27.46-2.83,34.42,9.22l278.53,482.43c6.96,12.05,2.83,27.46-9.22,34.42Z" style="fill:#ff92f7; stroke:#fff; stroke-miterlimit:10; stroke-width:8px;"/></g><g style="clip-path:url(#d);"><path d="m496.54,516.1h0c-12.05,6.96-27.46,2.83-34.42-9.22L183.59,24.45c-6.96-12.05-2.83-27.46,9.22-34.42h0c12.05-6.96,27.46-2.83,34.42,9.22l278.53,482.43c6.96,12.05,2.83,27.46-9.22,34.42Z" style="fill:#ff92f7; stroke:#fff; stroke-miterlimit:10; stroke-width:8px;"/></g><circle id="e" cx="344.68" cy="253.07" r="206.52" style="fill:none; stroke:#fff; stroke-miterlimit:10; stroke-width:8px;"/><path d="m603.97,293.01c14.18,12.6,29.93,18.9,49.73,18.9s34.88-9.22,34.88-21.38-13.28-18.68-40.95-26.55c-26.33-7.43-53.33-17.78-53.33-46.8s24.75-45.23,58.05-45.23c22.05,0,44.78,9.9,58.73,25.88l-18.9,18.68c-10.58-11.7-25.65-18-41.63-18-18.68,0-29.48,6.98-29.48,18.45,0,10.13,11.93,15.08,38.03,22.5,29.93,8.55,56.03,20.7,56.03,50.4s-28.58,48.83-62.33,48.83c-26.78,0-48.83-9.68-66.83-26.33l18-19.35Z" style="stroke-width:0px;"/><path d="m735.14,223.71h26.55v12.15c8.33-8.78,20.48-14.4,33.75-14.4,17.1,0,30.6,7.88,37.8,21.15,10.13-12.83,22.05-21.15,40.05-21.15,26.1,0,44.1,18.45,44.1,47.03v67.73h-26.55v-62.1c0-18.9-9.9-27.68-24.08-27.68-15.3,0-27.23,11.25-27.23,28.58v61.2h-26.55v-62.1c0-18.9-9.9-27.68-24.08-27.68-15.3,0-27.23,11.25-27.23,29.03v60.75h-26.55v-112.5Z" style="stroke-width:0px;"/><path d="m992.54,221.46c14.18,0,27.23,7.42,34.65,16.2v-13.95h26.55v112.5h-26.55v-14.4c-7.43,9.23-20.48,16.65-34.65,16.65-32.18,0-55.8-26.33-55.8-58.5s23.63-58.5,55.8-58.5Zm-29.25,58.5c0,17.55,14.4,31.95,31.95,31.95s31.95-14.4,31.95-31.95-14.4-31.95-31.95-31.95-31.95,14.4-31.95,31.95Z" style="stroke-width:0px;"/><path d="m1106.39,336.21h-26.55v-168.75h26.55v168.75Z" style="stroke-width:0px;"/><path d="m1159.03,336.21h-26.55v-168.75h26.55v168.75Z" style="stroke-width:0px;"/><path d="m1262.53,171.95c24.08,0,45.68,10.12,60.98,26.55l-18.68,18.9c-10.58-11.7-25.65-18.9-42.3-18.9-31.28,0-56.7,25.43-56.7,56.7s25.42,56.7,56.7,56.7c16.65,0,31.73-7.2,42.3-18.9l18.68,18.9c-15.3,16.2-36.9,26.55-60.98,26.55-45.9,0-83.25-37.35-83.25-83.25s37.35-83.25,83.25-83.25Z" style="stroke-width:0px;"/><path d="m1450.19,279.96c0,32.18-26.1,58.5-58.5,58.5s-58.5-26.33-58.5-58.5,26.33-58.5,58.5-58.5,58.5,26.1,58.5,58.5Zm-58.5,31.95c17.55,0,31.95-14.4,31.95-31.95s-14.4-31.95-31.95-31.95-31.95,14.4-31.95,31.95,14.4,31.95,31.95,31.95Z" style="stroke-width:0px;"/><path d="m1469.53,336.21v-112.5h26.55v12.15c8.33-8.78,20.47-14.4,33.75-14.4,26.1,0,44.1,18.45,44.1,47.03v67.73h-26.55v-62.1c0-18.9-9.9-27.68-24.08-27.68-15.3,0-27.23,11.25-27.23,29.03v60.75h-26.55Z" style="stroke-width:0px;"/><path d="m1590.58,250.26v-26.55h18.9v-6.08c0-32.4,17.33-45.68,45-45.68h9.23v25.65h-6.98c-13.28,0-20.7,4.73-20.7,21.83v4.28h27.68v26.55h-27.68v85.95h-26.55v-85.95h-18.9Z" style="stroke-width:0px;"/><path d="m1704.66,223.71v62.1c0,18.68,9.9,27.68,24.08,27.68,15.3,0,27.23-11.48,27.23-29.03v-60.75h26.55v112.5h-26.55v-12.15c-8.33,8.78-20.48,14.4-33.75,14.4-26.1,0-44.1-18.45-44.1-47.03v-67.73h26.55Z" style="stroke-width:0px;"/><path d="m1816.25,301.11c8.78,7.65,21.38,13.28,33.98,13.28,11.25,0,20.03-4.73,20.03-10.8,0-9.45-14.18-12.38-22.5-14.62-18.45-5.17-43.43-10.58-43.43-34.65,0-19.12,18.68-32.85,44.1-32.85,17.55,0,33.75,6.53,44.78,16.43l-14.62,18c-8.1-6.97-19.35-10.35-30.15-10.35-11.7,0-17.33,4.05-17.33,9,0,6.08,11.25,8.55,23.4,11.47,22.28,5.18,42.3,13.05,42.3,37.35,0,20.25-20.03,35.1-47.25,35.1-18.68,0-35.55-6.75-49.05-19.12l15.75-18.23Z" style="stroke-width:0px;"/><path d="m1928.08,171.95c8.77,0,15.75,7.2,15.75,15.75s-6.98,15.98-15.75,15.98-15.75-7.2-15.75-15.98,6.98-15.75,15.75-15.75Zm-13.28,164.25v-112.5h26.55v112.5h-26.55Z" style="stroke-width:0px;"/><path d="m2077.7,279.96c0,32.18-26.1,58.5-58.5,58.5s-58.5-26.33-58.5-58.5,26.33-58.5,58.5-58.5,58.5,26.1,58.5,58.5Zm-58.5,31.95c17.55,0,31.95-14.4,31.95-31.95s-14.4-31.95-31.95-31.95-31.95,14.4-31.95,31.95,14.4,31.95,31.95,31.95Z" style="stroke-width:0px;"/><path d="m2097.05,336.21v-112.5h26.55v12.15c8.33-8.78,20.48-14.4,33.75-14.4,26.1,0,44.1,18.45,44.1,47.03v67.73h-26.55v-62.1c0-18.9-9.9-27.68-24.08-27.68-15.3,0-27.23,11.25-27.23,29.03v60.75h-26.55Z" style="stroke-width:0px;"/></svg>